<svg viewBox="0 0 96 96" xmlns="http://www.w3.org/2000/svg" xmlns:xlink="http://www.w3.org/1999/xlink" id="Icons_Bee" overflow="hidden"><path d="M86.86 34.34C86.3335 32.8149 85.1905 31.5812 83.71 30.94 78.25 28.41 66.71 31.66 59.91 33.94 61.3298 32.0195 62.4369 29.8865 63.19 27.62 64.66 23.2 67.19 22.99 67.29 22.99 68.3946 22.99 69.29 22.0946 69.29 20.99 69.29 19.8854 68.3946 18.99 67.29 18.99 67.07 18.99 61.82 19.07 59.39 26.36 58.8049 28.0998 57.9731 29.7466 56.92 31.25 56.5819 30.2062 55.9871 29.264 55.19 28.51 55.8636 27.8444 56.2571 26.9464 56.29 26 56.29 24.34 54.98 22.87 52.99 22L55.63 16.71C56.1144 16.038 55.9624 15.1005 55.2904 14.616 54.6184 14.1316 53.6809 14.2837 53.1964 14.9557 53.1136 15.0705 53.0475 15.1966 53 15.33L50.1 21.13C48.933 20.957 47.747 20.957 46.58 21.13L43.68 15.33C43.2733 14.6083 42.3586 14.3528 41.6368 14.7595 40.9651 15.138 40.6897 15.9641 41 16.67L43.59 22C41.59 22.91 40.29 24.38 40.29 26 40.3293 27.0802 40.8233 28.0936 41.65 28.79 41.0961 29.3721 40.6523 30.0497 40.34 30.79 39.4327 29.4173 38.7098 27.9312 38.19 26.37 35.76 19.08 30.51 19 30.29 19 29.1854 19 28.29 19.8954 28.29 21 28.29 22.1046 29.1854 23 30.29 23 30.4 23 32.98 23.21 34.45 27.63 35.2468 30.0753 36.4466 32.3703 38 34.42 31.57 32.14 18.7 28.23 12.85 30.94 11.3695 31.5812 10.2265 32.8149 9.7 34.34 8.05 39.29 10.57 46.18 15.55 50.34 18.6584 52.9886 22.6163 54.4298 26.7 54.4 29.9165 54.3531 33.0865 53.6237 36 52.26 36 52.59 35.94 52.91 35.92 53.26L35.92 53.26C35.92 53.96 35.86 54.67 35.86 55.38 35.86 55.92 35.86 56.47 35.94 57.01L30.46 57.01 23.37 64.1C22.5946 64.8801 22.5946 66.1399 23.37 66.92 23.7458 67.298 24.257 67.5104 24.79 67.51 25.3196 67.5078 25.8267 67.2956 26.2 66.92L32.12 61 36.56 61C36.63 61.34 36.69 61.62 36.69 61.65 36.81 62.14 36.94 62.65 37.08 63.13L37.17 63.44C37.29 63.87 37.43 64.3 37.58 64.73 36.1469 68.9309 33.5409 72.6335 30.07 75.4 29.1863 76.0627 29.0073 77.3163 29.67 78.2 30.3327 79.0837 31.5863 79.2627 32.47 78.6 35.4894 76.267 37.9436 73.2829 39.65 69.87 40.1 70.87 40.58 71.78 41.06 72.66L41.06 72.66C41.26 73.02 41.46 73.3533 41.66 73.66L41.77 73.85C41.93 74.13 42.1 74.41 42.27 74.69L42.42 74.93 42.9 75.69 43.05 75.92 43.64 76.81 43.85 77.1 44.22 77.63 44.51 78.02 44.79 78.39 45.09 78.78 45.34 79.09 45.63 79.45 45.87 79.73 46.15 80.04C46.24 80.15 46.34 80.25 46.43 80.35 46.52 80.45 46.66 80.6 46.78 80.71L47.06 80.99 47.23 81.14 47.48 81.36 47.63 81.48 47.87 81.64 47.99 81.72 48.21 81.84 48.29 81.84C48.3729 81.8523 48.4571 81.8523 48.54 81.84L48.54 81.84C48.6098 81.8474 48.6802 81.8474 48.75 81.84L48.87 81.78C48.9265 81.756 48.9802 81.7258 49.03 81.69L49.21 81.58 49.36 81.47 49.59 81.29C49.6241 81.2509 49.6609 81.2141 49.7 81.18 50.2707 80.6671 50.8022 80.1122 51.29 79.52L51.29 79.52 51.72 79 51.81 78.88 52.24 78.33 52.36 78.17 52.79 77.59 52.9 77.43 53.58 76.43 54 76 54.21 75.66C54.35 75.4467 54.49 75.2267 54.63 75L54.81 74.72 55.31 73.89 55.4 73.73C56.09 72.55 56.76 71.28 57.4 69.95 59.1019 73.3233 61.5383 76.2723 64.53 78.58 65.4137 79.2427 66.6673 79.0637 67.33 78.18 67.9927 77.2963 67.8137 76.0427 66.93 75.38 63.4987 72.6513 60.9148 69.0026 59.48 64.86 59.907 63.5947 60.2609 62.3059 60.54 61L64.86 61 70.78 66.91C71.1534 67.2856 71.6604 67.4978 72.19 67.5 72.723 67.5004 73.2342 67.288 73.61 66.91 74.3854 66.1299 74.3854 64.8701 73.61 64.09L66.52 57 61.13 57C61.13 56.46 61.19 55.91 61.19 55.37 61.19 54.37 61.19 53.44 61.09 52.5 63.8558 53.7311 66.8429 54.3877 69.87 54.43 73.9468 54.455 77.8969 53.0141 81 50.37 86 46.18 88.51 39.29 86.86 34.34ZM37.78 43.52C37.61 44 37.46 44.52 37.31 45 37.31 45.11 37.24 45.23 37.21 45.35 37.07 45.8567 36.94 46.3767 36.82 46.91 36.82 47.03 36.82 47.14 36.74 47.26L36.74 47.26 35.84 47.9C26.79 52.72 20.84 49.6 18.13 47.3 13.96 43.8 12.51 38.6 13.51 35.59 13.6834 35.128 14.048 34.7634 14.51 34.59 15.6245 34.1592 16.8164 33.9651 18.01 34.02 23.86 34.02 33.52 36.92 39.62 39.32L39.21 40.05 39.12 40.23C38.91 40.66 38.7 41.1 38.51 41.56L38.39 41.81C38.2033 42.27 38.0233 42.74 37.85 43.22 37.85 43.31 37.81 43.41 37.78 43.52ZM54.66 70.91C52.653 71.3231 50.6091 71.5308 48.56 71.53 46.4799 71.5341 44.4052 71.3196 42.37 70.89 41.5542 69.3525 40.8264 67.77 40.19 66.15 42.8848 67.0683 45.713 67.5346 48.56 67.53 51.3835 67.5371 54.1885 67.0741 56.86 66.16 56.217 67.7836 55.4825 69.3695 54.66 70.91ZM58.94 58.67C52.2315 61.148 44.8585 61.148 38.15 58.67 37.9875 57.5774 37.904 56.4746 37.9 55.37 37.9 54.99 37.9 54.61 37.9 54.24 44.6627 57.2869 52.4073 57.2869 59.17 54.24 59.17 54.61 59.17 54.98 59.17 55.36 59.1727 56.4674 59.0958 57.5736 58.94 58.67ZM78.44 47.31C75.71 49.61 69.79 52.73 60.73 47.91L60.44 47.7C59.8707 44.6962 58.8241 41.8029 57.34 39.13 65 36.13 77.71 32.57 82.03 34.57 82.492 34.7434 82.8566 35.108 83.03 35.57 84.07 38.61 82.61 43.81 78.44 47.31Z"/></svg>